<?xml version="1.0" standalone="no"?>
<!DOCTYPE svg PUBLIC "-//W3C//DTD SVG 20010904//EN"
 "http://www.w3.org/TR/2001/REC-SVG-20010904/DTD/svg10.dtd">
<svg version="1.0" xmlns="http://www.w3.org/2000/svg"
 width="578.000000pt" height="592.000000pt" viewBox="0 0 578.000000 592.000000"
 preserveAspectRatio="xMidYMid meet">

<g transform="translate(0.000000,592.000000) scale(0.100000,-0.100000)"
fill="#000000" stroke="none">
<path d="M1898 5849 c-78 -11 -182 -49 -264 -94 -89 -50 -182 -129 -519 -441
-111 -102 -125 -112 -185 -128 -141 -39 -233 -102 -285 -197 -28 -51 -30 -60
-30 -169 0 -114 1 -116 48 -232 32 -80 47 -130 47 -162 0 -49 -29 -185 -60
-281 -19 -59 -43 -197 -115 -667 l-37 -237 67 -248 c191 -715 262 -922 389
-1138 29 -49 73 -126 97 -169 91 -165 239 -287 456 -377 61 -26 73 -35 73 -54
0 -26 -81 -282 -109 -348 -38 -84 -39 -85 -108 -38 -81 55 -234 126 -306 142
-45 9 -63 10 -83 0 -26 -12 -27 -13 -21 -88 5 -63 14 -92 51 -169 69 -142 139
-245 224 -326 107 -102 222 -178 271 -178 33 0 170 233 399 680 58 113 107
207 109 209 2 3 52 -3 111 -13 127 -22 410 -31 566 -19 78 6 109 6 113 -3 6
-15 -26 -105 -45 -126 -12 -14 -31 -18 -89 -18 -105 0 -197 -25 -228 -62 -14
-16 -25 -42 -25 -56 0 -38 59 -168 113 -249 84 -126 284 -301 411 -359 50 -23
60 -24 91 -14 43 14 55 32 106 150 56 129 69 195 129 647 11 84 23 159 26 167
6 16 53 22 249 31 126 5 224 24 278 51 68 35 235 179 304 261 91 108 266 365
298 438 27 60 27 60 140 70 158 14 321 75 370 140 45 58 53 160 18 242 -17 42
-70 95 -116 117 -21 9 -37 20 -37 23 0 3 30 38 68 77 92 97 119 156 92 207
-16 29 -55 45 -166 68 -115 24 -186 44 -186 51 0 3 45 145 100 315 178 546
190 600 157 710 -22 77 -63 118 -141 141 -127 37 -234 19 -314 -53 -72 -64
-118 -145 -320 -558 -100 -203 -183 -371 -184 -372 -1 -2 -34 13 -73 32 -142
71 -311 81 -503 30 -102 -28 -277 -108 -379 -175 -35 -23 -67 -38 -72 -33 -19
19 -31 224 -26 433 5 182 10 241 37 385 76 412 40 956 -95 1449 -53 192 -114
330 -176 395 -52 55 -333 165 -479 186 -104 16 -146 17 -232 4z m238 -164
c133 -39 377 -263 462 -423 44 -83 80 -241 93 -412 15 -192 6 -986 -16 -1360
-9 -157 -15 -321 -12 -365 5 -82 74 -348 103 -392 16 -26 60 -30 113 -12 31
11 32 14 26 48 -3 20 -8 44 -11 53 -13 43 241 179 415 222 112 28 204 33 311
15 91 -14 200 -48 200 -61 0 -6 -16 -39 -36 -73 l-36 -62 -97 -11 c-131 -16
-257 -54 -374 -114 -102 -52 -217 -131 -217 -148 0 -16 56 -40 94 -40 19 0 85
16 148 36 311 98 533 99 694 3 122 -72 226 -205 275 -349 26 -78 29 -196 6
-251 -31 -76 -222 -334 -328 -444 -124 -129 -184 -153 -469 -190 -147 -19
-247 -39 -295 -59 -30 -13 -35 -20 -35 -48 0 -87 -23 -369 -40 -505 -22 -167
-57 -296 -91 -332 -45 -48 -135 -2 -245 127 -69 81 -188 252 -180 259 3 3 45
-4 94 -16 119 -28 128 -27 171 16 32 32 41 54 65 143 15 58 39 140 53 183 30
94 26 123 -22 143 -29 12 -103 14 -422 12 -372 -3 -393 -2 -503 20 -141 29
-351 97 -450 147 -395 197 -683 700 -839 1462 -49 242 -57 336 -38 483 37 283
91 660 96 668 3 5 188 26 411 46 758 70 977 96 1090 133 75 25 74 45 -5 56
-125 17 -924 -7 -1273 -38 -90 -8 -168 -15 -174 -15 -8 0 -9 36 -4 122 4 67 9
124 11 127 3 2 46 8 97 12 51 5 109 13 128 19 19 5 36 10 36 10 1 0 0 -27 -3
-59 -5 -54 -3 -62 20 -85 21 -21 36 -26 77 -26 104 0 319 59 392 108 42 27 57
64 37 88 -21 26 -109 65 -137 62 -22 -2 -26 -7 -23 -28 9 -63 8 -64 -44 -82
-27 -9 -65 -17 -82 -17 -29 -1 -33 2 -33 25 0 20 23 49 93 118 50 50 116 112
145 137 44 38 52 51 52 80 0 40 -7 52 -37 67 -18 10 -28 6 -74 -28 -55 -41
-69 -40 -69 6 0 43 -71 163 -140 237 -39 41 -70 79 -70 84 0 23 242 235 410
360 120 90 257 136 380 128 41 -2 98 -11 126 -20z m-917 -631 c93 -106 125
-241 71 -300 -36 -38 -96 -62 -165 -64 -105 -4 -103 -6 -48 53 104 110 122
189 77 340 -10 33 24 18 65 -29z m3418 -1030 c99 -49 127 -163 82 -337 -24
-97 -70 -194 -253 -537 -75 -140 -136 -258 -136 -261 0 -3 37 -17 83 -30 64
-18 109 -24 202 -25 158 -2 149 0 184 -33 62 -58 29 -134 -72 -162 -23 -7 -80
-15 -127 -18 l-85 -6 109 -64 c169 -99 226 -159 226 -239 0 -70 -71 -119 -206
-143 -63 -11 -168 -9 -180 4 -3 3 -10 36 -14 74 -11 97 -46 204 -89 270 -83
129 -266 261 -426 309 -33 10 -64 21 -69 25 -4 4 28 63 71 131 273 425 457
775 518 984 13 46 22 58 48 69 47 21 77 18 134 -11z m-2788 -2830 c28 -8 51
-19 51 -25 0 -30 -237 -464 -336 -615 -68 -103 -122 -164 -145 -164 -42 0
-147 102 -225 220 -112 167 -175 293 -157 311 15 15 65 -9 252 -120 91 -55
175 -101 185 -103 26 -4 73 84 178 330 l82 194 32 -7 c18 -3 55 -12 83 -21z"/>
<path d="M2090 5129 c-208 -37 -310 -189 -310 -463 l0 -117 47 -50 c77 -82 83
-84 278 -84 179 1 231 9 315 51 86 42 134 111 179 258 59 191 -9 331 -187 386
-78 25 -239 34 -322 19z m219 -84 c45 -23 139 -133 173 -202 57 -116 47 -194
-33 -245 -57 -37 -126 -49 -260 -46 l-114 3 40 18 c104 48 125 60 160 95 85
84 94 169 30 294 -33 65 -43 98 -30 98 4 0 19 -7 34 -15z"/>
<path d="M2073 3638 c-58 -65 -57 -49 -34 -365 44 -611 48 -783 17 -873 -7
-19 -47 -90 -89 -156 -82 -130 -92 -163 -58 -205 16 -20 29 -24 97 -27 71 -3
81 -6 104 -31 120 -132 216 -105 270 77 7 23 16 42 20 42 5 0 27 -9 51 -20 85
-38 97 -29 138 103 31 101 20 121 -133 235 l-89 66 7 93 c3 51 17 177 31 280
83 639 77 763 -36 763 -64 0 -66 -8 -73 -325 -4 -205 -11 -315 -26 -410 -47
-304 -13 -448 123 -528 24 -14 60 -44 80 -66 40 -45 47 -82 22 -118 l-15 -22
-66 50 c-105 79 -144 66 -144 -48 0 -79 -16 -133 -39 -133 -23 0 -45 25 -64
73 -18 43 -36 46 -110 21 -104 -35 -138 3 -68 79 22 23 65 61 95 83 34 24 57
49 60 64 3 14 10 234 17 490 14 581 6 797 -33 821 -21 14 -33 11 -55 -13z"/>
<path d="M3193 2930 c-30 -12 -29 -18 7 -67 59 -80 119 -96 164 -42 14 17 26
35 26 40 0 56 -123 99 -197 69z"/>
<path d="M3486 2398 c-13 -18 -30 -53 -37 -77 -12 -40 -11 -45 6 -57 20 -15
49 -17 108 -8 30 5 37 11 37 29 0 31 -27 105 -47 127 -23 26 -39 22 -67 -14z"/>
<path d="M3312 2027 c-40 -42 -48 -82 -25 -126 31 -60 49 -62 94 -12 33 37 39
51 39 87 0 48 -25 84 -58 84 -10 0 -32 -15 -50 -33z"/>
<path d="M3364 1766 c-8 -33 20 -82 52 -90 40 -10 98 22 102 57 3 23 -2 30
-32 42 -19 8 -53 15 -75 15 -34 0 -42 -4 -47 -24z"/>
<path d="M3584 1582 c-28 -19 -24 -45 15 -84 58 -58 105 -44 87 25 -12 50 -68
82 -102 59z"/>
</g>
</svg>
